<svg width="40" height="40" viewBox="0 0 40 40" fill="none" xmlns="http://www.w3.org/2000/svg">
<path d="M8.00001 10H1.56001C0.820012 10 0.0800126 10.64 0.180013 11.68L3.30001 31.66C3.30001 31.66 7.00001 16.94 7.72001 13.4C7.94001 12.34 8.94001 12 9.68001 12H20C20 12 18.6 7.84 18.46 7.38C18.22 6.5 17.78 6 16.9 6H10.28C9.56001 6 8.88001 6.46 8.68001 7.28C8.50001 8.08 8.00001 10 8.00001 10ZM17.76 10H9.76001C9.76001 10 10.6 8 11.5 8H15.76C16.72 8 17.76 10 17.76 10ZM5.34001 32.5C4.72001 33.44 3.82001 34 2.82001 34H34.28C35.36 34 36.12 33.38 36.34 32.34C37.22 27.96 39.7 15.46 39.7 15.46C39.84 14.46 39.1 14 38.46 14H32V11.06C32 10.74 31.48 10 30.68 10H23.16C22.12 10 21.42 11.16 21.42 11.16L20 14H11.18C10.54 14 9.92001 14.38 9.80001 15C9.80001 15 6.62001 28.4 6.36001 29.66C6.22001 30.4 5.92001 31.64 5.34001 32.5ZM30.76 14H22C22 14 23.16 12 24.26 12H28.84C30.26 12 30.76 14 30.76 14Z" fill="black"/>
</svg>
