<svg width="36" height="41" viewBox="0 0 36 41" fill="none" xmlns="http://www.w3.org/2000/svg">
<path d="M36 29.8531C36 30.6131 35.58 31.2731 34.94 31.6131L19.14 40.4931C18.82 40.7331 18.42 40.8531 18 40.8531C17.58 40.8531 17.18 40.7331 16.86 40.4931L1.06001 31.6131C0.739367 31.4446 0.471032 31.1915 0.284154 30.8812C0.097276 30.5709 -0.000998341 30.2153 7.64648e-06 29.8531V11.8531C7.64648e-06 11.0931 0.420008 10.4331 1.06001 10.0931L16.86 1.21312C17.18 0.973119 17.58 0.853119 18 0.853119C18.42 0.853119 18.82 0.973119 19.14 1.21312L34.94 10.0931C35.58 10.4331 36 11.0931 36 11.8531V29.8531ZM4.00001 14.8531V26.8531H6.50001V22.8531H8.00001C9.06087 22.8531 10.0783 22.4317 10.8284 21.6815C11.5786 20.9314 12 19.914 12 18.8531C12 17.7923 11.5786 16.7748 10.8284 16.0247C10.0783 15.2745 9.06087 14.8531 8.00001 14.8531H4.00001ZM6.50001 20.8531V16.8531H7.50001C8.03044 16.8531 8.53915 17.0638 8.91422 17.4389C9.28929 17.814 9.50001 18.3227 9.50001 18.8531C9.50001 19.3836 9.28929 19.8923 8.91422 20.2673C8.53915 20.6424 8.03044 20.8531 7.50001 20.8531H6.50001ZM13.5 14.8531V26.8531H16V22.8531H17.5L18.82 26.8531H21.46L19.88 22.0731C20.86 21.3531 21.5 20.1731 21.5 18.8531C21.5 17.7923 21.0786 16.7748 20.3284 16.0247C19.5783 15.2745 18.5609 14.8531 17.5 14.8531H13.5ZM16 20.8531V16.8531H17C17.5304 16.8531 18.0391 17.0638 18.4142 17.4389C18.7893 17.814 19 18.3227 19 18.8531C19 19.3836 18.7893 19.8923 18.4142 20.2673C18.0391 20.6424 17.5304 20.8531 17 20.8531H16ZM28 14.8531C25.24 14.8531 23 17.5331 23 20.8531C23 24.1731 25.24 26.8531 28 26.8531C30.76 26.8531 33 24.1731 33 20.8531C33 17.5331 30.76 14.8531 28 14.8531ZM28 17.3531C29.52 17.3531 30.76 18.9131 30.76 20.8531C30.76 22.7931 29.52 24.3531 28 24.3531C26.48 24.3531 25.26 22.7931 25.26 20.8531C25.26 18.9131 26.48 17.3531 28 17.3531Z" fill="black"/>
</svg>
