<svg width="37" height="41" viewBox="0 0 37 41" fill="none" xmlns="http://www.w3.org/2000/svg">
<path fill-rule="evenodd" clip-rule="evenodd" d="M36.1987 9.714C36.3904 9.99208 36.5084 10.3143 36.5416 10.6504C36.5636 10.8664 38.4636 32.1844 19.3636 40.6784C19.1084 40.7935 18.8316 40.8531 18.5516 40.8531C18.2716 40.8531 17.9948 40.7935 17.7396 40.6784C-1.36036 32.1844 0.539641 10.8644 0.561645 10.6504C0.595412 10.3147 0.713378 9.99295 0.904624 9.715C1.09587 9.43704 1.35419 9.21188 1.65564 9.06036L17.6556 1.06036C17.9335 0.921326 18.2399 0.848938 18.5506 0.848938C18.8614 0.848938 19.1678 0.921326 19.4456 1.06036L35.4456 9.06036C35.7479 9.21103 36.007 9.43591 36.1987 9.714ZM4.48364 12.1204C4.37364 16.1344 5.01364 30.1004 18.5516 36.6444C31.9536 30.1524 32.6836 16.0944 32.6096 12.1164L18.5516 5.08636L4.48364 12.1204ZM11.9656 17.4364L16.5516 22.0224L25.1376 13.4364L27.9656 16.2644L16.5516 27.6784L9.13757 20.2644L11.9656 17.4364Z" fill="black"/>
</svg>
