<svg width="41" height="34" viewBox="0 0 41 34" fill="none" xmlns="http://www.w3.org/2000/svg">
<path d="M23.84 14.074C23.6816 14.0729 23.5291 14.1346 23.416 14.2455C23.3028 14.3564 23.2381 14.5076 23.236 14.666V19.09C23.2381 19.2488 23.3031 19.4003 23.4167 19.5112C23.5303 19.6222 23.6832 19.6836 23.842 19.682H37.168C37.3268 19.6836 37.4797 19.6222 37.5933 19.5112C37.7069 19.4003 37.7719 19.2488 37.774 19.09V14.666C37.7719 14.5072 37.7069 14.3557 37.5933 14.2448C37.4797 14.1338 37.3268 14.0724 37.168 14.074H23.842H23.84ZM32.012 0.00200009C33.856 0.0900001 35.182 0.454 36.022 1.226C36.852 1.99 37.278 3.096 37.362 4.56V8.754C37.3578 9.11117 37.212 9.45206 36.9566 9.70181C36.7012 9.95156 36.3572 10.0897 36 10.086C35.823 10.0881 35.6473 10.0553 35.4829 9.98954C35.3186 9.92374 35.1688 9.82621 35.0421 9.70252C34.9154 9.57883 34.8144 9.4314 34.7447 9.26866C34.675 9.10591 34.6381 8.93103 34.636 8.754L34.638 4.636C34.594 3.876 34.412 3.404 34.152 3.164C33.9 2.932 33.132 2.724 31.946 2.664H5.794C4.72 2.704 4.022 2.908 3.684 3.198C3.424 3.42 3.228 4.032 3.226 5.09L3.22 28.63C3.32 29.658 3.546 30.344 3.836 30.686C4.056 30.946 4.738 31.206 5.742 31.334H31.974C33.202 31.358 33.926 31.174 34.17 30.928C34.44 30.654 34.636 29.934 34.636 28.756V24.666C34.636 23.932 35.246 23.334 36 23.334C36.752 23.334 37.362 23.932 37.362 24.666V28.756C37.362 30.556 36.994 31.902 36.132 32.776C35.244 33.676 33.832 34.036 31.946 33.996L5.58 33.99C3.786 33.782 2.5 33.29 1.734 32.384C1.04 31.564 0.654 30.394 0.5 28.758V5.088C0.504 3.336 0.924 2.018 1.888 1.194C2.772 0.434 4.048 0.064 5.742 0H32.012V0.00200009ZM37.168 11.41C39.008 11.41 40.5 12.868 40.5 14.666V19.09C40.5 20.888 39.008 22.346 37.168 22.346H23.842C22.002 22.346 20.51 20.886 20.51 19.09V14.666C20.51 12.868 22.002 11.41 23.842 11.41H37.168ZM27.174 15.29C26.254 15.29 25.508 16.01 25.508 16.896C25.508 17.784 26.254 18.502 27.174 18.502C28.094 18.502 28.84 17.782 28.84 16.896C28.84 16.008 28.094 15.288 27.174 15.288V15.29Z" fill="black"/>
</svg>
